# xmcd
# 
# Track frame offsets:
#     150
#     6725
#     11180
#     27185
#     40892
#     60812
#     75215
#     93055
#     103130
#     129350
#     147187
#     166570
#     215010
#     233725
#     258897
#     288912
#     292057
# 
# Disc length: 4130
# 
# Revision: 1
# Processed by: cddbd v1.5.2PL0 Copyright (c) Steve Scherf et al.
# Submitted via: BonkEnc v1.0.8
# 
DISCID=db102011
DTITLE=Diane Dufresne - Merci CD01
DYEAR=0
DGENRE=Rock
TTITLE0=À faire l'inventaire
TTITLE1=Il m'aimera
TTITLE2=Un jour il viendra mon amour
TTITLE3=J'ai rencontré l'homme de ma vie
TTITLE4=Sur la même longueur d'ondes
TTITLE5=Rock pour un gars d'bicyc
TTITLE6=Rond-point
TTITLE7=Tiens-toé ben j'arrive
TTITLE8=Mon premier show
TTITLE9=Hollywood freak
TTITLE10=Chanson pour Elvis
TTITLE11=En écoutant Elton John
TTITLE12=La chanteuse straight
TTITLE13=Actualités
TTITLE14=Les adieux d'un sex-symbol
TTITLE15=Taxi
TTITLE16=Oxygène (99)
EXTD=ID3G: 0
EXTT0=
EXTT1=
EXTT2=
EXTT3=
EXTT4=
EXTT5=
EXTT6=
EXTT7=
EXTT8=
EXTT9=
EXTT10=
EXTT11=
EXTT12=
EXTT13=
EXTT14=
EXTT15=
EXTT16=
PLAYORDER=
